<?xml version="1.0" encoding="utf-8"?>
<!-- Generator: Adobe Illustrator 19.2.0, SVG Export Plug-In . SVG Version: 6.00 Build 0)  -->
<svg version="1.1" id="Layer_1" xmlns:sketch="http://www.bohemiancoding.com/sketch/ns"
	 xmlns="http://www.w3.org/2000/svg" xmlns:xlink="http://www.w3.org/1999/xlink" x="0px" y="0px" viewBox="0 0 125 40"
	 style="enable-background:new 0 0 125 40;" xml:space="preserve">
<style type="text/css">
	.st0{fill:url(#SVGID_1_);}
	.st1{fill:url(#SVGID_2_);}
	.st2{fill:#FFFFFF;stroke:#1F1E21;stroke-width:0.5145;stroke-linecap:round;}
	.st3{fill:#FFFFFF;enable-background:new    ;}
	.st4{fill:url(#SVGID_3_);}
	.st5{fill:url(#SVGID_4_);}
	.st6{fill:url(#SVGID_5_);}
	.st7{fill:#6A3736;}
	.st8{fill:url(#SVGID_6_);}
	.st9{fill:#FFFFFF;}
	.st10{fill:#1F1E21;}
</style>
<title>truste</title>
<desc>Created with Sketch.</desc>
<linearGradient id="SVGID_1_" gradientUnits="userSpaceOnUse" x1="25.1864" y1="29.6843" x2="41.3575" y2="-0.4169">
	<stop  offset="0" style="stop-color:#636465"/>
	<stop  offset="2.975547e-002" style="stop-color:#676869"/>
	<stop  offset="0.2659" style="stop-color:#828384"/>
	<stop  offset="0.5054" style="stop-color:#969798"/>
	<stop  offset="0.7484" style="stop-color:#A1A2A3"/>
	<stop  offset="1" style="stop-color:#A5A6A7"/>
</linearGradient>
<path class="st0" d="M34,36.2c0,0-16.9-5.7-15-29.2c0,0,7.4-2.1,15-2.1c7.5,0,14.8,2.1,15,2.1C51,30.4,34,36.2,34,36.2z"/>
<linearGradient id="SVGID_2_" gradientUnits="userSpaceOnUse" x1="40.3814" y1="21.0543" x2="19.4953" y2="7.2356">
	<stop  offset="0" style="stop-color:#C4C5C6"/>
	<stop  offset="9.768075e-002" style="stop-color:#DCDDDD"/>
	<stop  offset="0.2067" style="stop-color:#F0F0F0"/>
	<stop  offset="0.3177" style="stop-color:#FBFBFB"/>
	<stop  offset="0.4326" style="stop-color:#FFFFFF"/>
	<stop  offset="0.5353" style="stop-color:#F6F7F7"/>
	<stop  offset="0.7001" style="stop-color:#DFDFE0"/>
	<stop  offset="0.905" style="stop-color:#B9BABB"/>
	<stop  offset="1" style="stop-color:#A5A6A7"/>
</linearGradient>
<path class="st1" d="M34,36.2c0,0-16.9-5.7-15-29.2c0,0,7.4-2.1,15-2.1c7.5,0,14.8,2.1,15,2.1l-1.5,1.4L34,34.7L34,36.2z"/>
<path class="st2" d="M34,34.7c0,0-15.3-5.2-13.6-26.5c0,0,6.7-1.9,13.6-1.9c6.8,0,13.4,1.9,13.6,1.9C49.4,29.5,34,34.7,34,34.7z"/>
<g>
	<path class="st3" d="M34,34.7c0,0-15.3-5.2-13.6-26.5c0,0,6.7-1.9,13.6-1.9c6.8,0,13.4,1.9,13.6,1.9C49.4,29.5,34,34.7,34,34.7z"/>
</g>
<linearGradient id="SVGID_3_" gradientUnits="userSpaceOnUse" x1="45.6591" y1="24.9656" x2="23.6313" y2="10.0644">
	<stop  offset="0" style="stop-color:#4C4C4E"/>
	<stop  offset="0.2192" style="stop-color:#636365"/>
	<stop  offset="0.4734" style="stop-color:#767778"/>
	<stop  offset="0.7321" style="stop-color:#818283"/>
	<stop  offset="1" style="stop-color:#858687"/>
</linearGradient>
<path class="st4" d="M20.4,8l-0.1,0l0,0.2c-0.9,11.1,2.9,17.7,6.2,21.4c3.6,4,7.5,5.3,7.5,5.3l0.1,0l0.1,0c0,0,3.9-1.4,7.6-5.3
	c3.3-3.6,7.1-10.3,6.2-21.4l0-0.1l-0.1,0C47.7,8,41,6.1,34,6.1C27.3,6.1,20.5,8,20.4,8z M34.2,6.4c6.3,0,12.3,1.7,13.3,1.9
	c0.1,1.1,0.1,2.3,0.1,3.3c0,9-3.3,14.6-6.3,17.8c-3.3,3.6-6.8,5-7.3,5.2c-0.5-0.2-4.1-1.6-7.4-5.2c-2.9-3.2-6.2-8.8-6.2-17.8
	c0-1,0.1-2.3,0.2-3.3C21.7,8.1,28,6.4,34.2,6.4z"/>
<linearGradient id="SVGID_4_" gradientUnits="userSpaceOnUse" x1="24.2938" y1="23.9427" x2="43.1299" y2="10.497">
	<stop  offset="0" style="stop-color:#6A3736"/>
	<stop  offset="0.6067" style="stop-color:#B24E51"/>
	<stop  offset="0.7079" style="stop-color:#AC0335"/>
	<stop  offset="1" style="stop-color:#6B3F4E"/>
</linearGradient>
<path class="st5" d="M34,32.1c0,0-12.8-4.7-11.4-22.5c0,0,5.7,0.5,11.4,0.5c5.7,0,11.2-0.4,11.4-0.5C46.9,27.4,34,32.1,34,32.1z"/>
<radialGradient id="SVGID_5_" cx="30.9942" cy="14.2024" r="20.0211" gradientUnits="userSpaceOnUse">
	<stop  offset="0" style="stop-color:#B24E51"/>
	<stop  offset="0.4607" style="stop-color:#AC0335"/>
	<stop  offset="1" style="stop-color:#6B3F4E"/>
</radialGradient>
<path class="st6" d="M34.1,30.5c0,0-11.1-4.1-9.8-19.5c0,0,4.9,0.4,9.8,0.4c4.9,0,9.7-0.4,9.9-0.4C45.2,26.5,34.1,30.5,34.1,30.5z"
	/>
<path class="st7" d="M45.5,9.5C45.3,9.6,39.8,10,34,10c-5.7,0-11.4-0.5-11.4-0.5l1.6,1.5c0,0,4.9,0.4,9.8,0.4c4.9,0,9.7-0.4,9.9-0.4
	L45.5,9.5z"/>
<linearGradient id="SVGID_6_" gradientUnits="userSpaceOnUse" x1="18.8497" y1="11.0128" x2="35.5052" y2="30.2234">
	<stop  offset="0" style="stop-color:#6A3736"/>
	<stop  offset="0.6067" style="stop-color:#B24E51"/>
	<stop  offset="0.7079" style="stop-color:#AC0335"/>
	<stop  offset="1" style="stop-color:#6B3F4E"/>
</linearGradient>
<path class="st8" d="M34,32.1c0,0-12.8-4.7-11.4-22.5l1.6,1.5c-1.3,15.4,9.8,19.5,9.8,19.5L34,32.1z"/>
<g>
	
		<image style="overflow:visible;opacity:0.25;" width="12" height="14" xlink:href="C8AB1DD7.png"  transform="matrix(1 0 0 1 26.1804 12.1804)">
	</image>
	<g>
		<polygon class="st9" points="27.2,24.4 29,12.4 32.1,12.4 35.8,24.4 32.6,24.4 31,18.2 30.1,24.4 		"/>
	</g>
</g>
<g>
	
		<image style="overflow:visible;opacity:0.25;" width="10" height="14" xlink:href="C8AB1DD5.png"  transform="matrix(1 0 0 1 33.1804 12.1804)">
	</image>
	<g>
		<polygon class="st9" points="36.3,12.4 39.3,12.4 41.1,24.4 38.1,24.4 37.1,18.2 36.1,23 34.5,18.2 		"/>
	</g>
</g>
<g>
	<path class="st10" d="M60.2,18.2l-2.4,0l-2.3-5.8h0l-0.8,5.8h-2.6l1.7-10.7h2.5L60.2,18.2z M58.5,12.7l1.9-5.2H63l1.5,10.7H62
		l-0.7-5.8h0l-1.5,3.4L58.5,12.7z"/>
	<path class="st10" d="M74.3,16.3l-0.6,1.9H71l3.6-10.7h2.7l3.5,10.7h-2.6l-0.6-1.9H74.3z M76,10.8L76,10.8l-1,3.4h2L76,10.8z"/>
	<path class="st10" d="M93.9,15h-5c0,1.1,0.5,1.6,1.5,1.6c0.5,0,0.9-0.2,1.1-0.7h2.3c-0.2,0.9-0.7,1.5-1.3,1.9
		c-0.6,0.4-1.4,0.6-2.1,0.6c-2.2,0-3.9-1.4-3.9-3.9c0-2.4,1.5-3.9,3.7-3.9c2.3,0,3.7,1.6,3.7,4V15z M91.6,13.5
		c-0.1-0.7-0.7-1.2-1.3-1.2c-0.7,0-1.3,0.4-1.4,1.2H91.6z"/>
	<path class="st10" d="M102.1,15h-5c0,1.1,0.5,1.6,1.5,1.6c0.5,0,0.9-0.2,1.1-0.7h2.3c-0.2,0.9-0.7,1.5-1.3,1.9
		c-0.6,0.4-1.4,0.6-2.1,0.6c-2.2,0-3.9-1.4-3.9-3.9c0-2.4,1.5-3.9,3.7-3.9c2.3,0,3.7,1.6,3.7,4V15z M99.9,13.5
		c-0.1-0.7-0.7-1.2-1.3-1.2c-0.7,0-1.3,0.4-1.4,1.2H99.9z"/>
	<path class="st10" d="M102.4,9.5c0-1,0.8-1.8,1.8-1.8c1,0,1.8,0.8,1.8,1.8s-0.8,1.8-1.8,1.8C103.2,11.3,102.4,10.5,102.4,9.5z
		 M102.7,9.5c0,0.9,0.7,1.5,1.5,1.5c0.8,0,1.5-0.7,1.5-1.5c0-0.9-0.7-1.5-1.5-1.5C103.4,7.9,102.7,8.6,102.7,9.5z M105.1,10.5h-0.3
		l-0.5-0.9h-0.4v0.9h-0.3V8.5h0.9c0.4,0,0.7,0.1,0.7,0.5c0,0.4-0.3,0.6-0.5,0.6L105.1,10.5z M103.8,8.8v0.5h0.3c0.3,0,0.7,0,0.7-0.2
		c0-0.3-0.2-0.3-0.5-0.3H103.8z"/>
</g>
<g>
	<path class="st10" d="M81.8,12.7h-1.4v-1.8h1.4v-0.8c0-2.2,1-2.9,2.8-2.9c0.5,0,0.9,0.1,1.2,0.1L85.7,9C85.5,9,85.3,8.9,85,8.9
		c-0.6,0-0.8,0.4-0.8,1.2v0.8h1.7v1.8h-1.7v5.5h-2.4V12.7z"/>
</g>
<g>
	<path class="st10" d="M57.5,23.3c-0.8-0.3-1.2-0.4-1.9-0.4c-0.8,0-1.8,0.3-1.8,1.3c0,1.9,4.5,1.5,4.5,4.8c0,2.2-1.7,3-3.8,3
		c-0.7,0-1.4-0.2-2.1-0.4l0.1-1.3c0.5,0.2,1.4,0.5,2.2,0.5c0.8,0,2-0.5,2-1.6c0-2.3-4.5-1.6-4.5-4.8c0-1.8,1.5-2.7,3.3-2.7
		c0.7,0,1.5,0.1,2.2,0.4L57.5,23.3z"/>
	<path class="st10" d="M60.3,21.8h5.8V23h-4.3V26h3.9v1.3h-3.9v3.3h4.3v1.3h-5.8V21.8z"/>
	<path class="st10" d="M75.1,23.4c-0.7-0.4-1.4-0.6-2.1-0.6c-2.4,0-4,1.7-4,3.9c0,2.4,1.8,3.9,3.9,3.9c0.7,0,1.7-0.2,2.3-0.5
		l0.1,1.4C74.4,32,73.5,32,72.9,32c-3.3,0-5.5-2-5.5-5.3c0-3.1,2.3-5.2,5.5-5.2c0.8,0,1.6,0.1,2.3,0.4L75.1,23.4z"/>
	<path class="st10" d="M84.5,27.7c0,2.8-1.5,4.3-4,4.3c-2.6,0-4-1.5-4-4.3v-5.9h1.5v5.7c0,1.9,0.6,3.3,2.5,3.3s2.5-1.3,2.5-3.3v-5.7
		h1.5V27.7z"/>
	<path class="st10" d="M86.9,21.8h2.5c2.1,0,4,0.3,4,2.7c0,1.2-0.9,2.1-2.1,2.3v0c0.5,0.2,0.7,0.4,1,1l2,4h-1.7L91,28.4
		c-0.5-1-1-1-1.7-1h-0.9v4.5h-1.5V21.8z M88.4,26.1h1.3c1.4,0,2.2-0.6,2.2-1.6c0-0.9-0.7-1.5-2.1-1.5h-1.4V26.1z"/>
	<path class="st10" d="M96,21.8h5.8V23h-4.3V26h3.9v1.3h-3.9v3.3h4.3v1.3H96V21.8z"/>
</g>
<path class="st10" d="M70.5,13.2c-0.4-0.3-0.9-0.4-1.4-0.4c-1,0-1.8,0.8-1.8,2c0,1.2,0.9,1.9,1.9,1.9c0.5,0,1.1-0.1,1.5-0.3l0.1,1.9
	c-0.6,0.2-1.3,0.3-1.9,0.3c-2.3,0-4-1.4-4-3.8c0-2.4,1.7-3.8,4-3.8c0.7,0,1.3,0.1,1.9,0.4L70.5,13.2z"/>
</svg>
