<?xml version="1.0" encoding="utf-8"?>
<!-- Generator: Adobe Illustrator 19.2.0, SVG Export Plug-In . SVG Version: 6.00 Build 0)  -->
<svg version="1.1" id="Layer_1" xmlns:sketch="http://www.bohemiancoding.com/sketch/ns"
	 xmlns="http://www.w3.org/2000/svg" xmlns:xlink="http://www.w3.org/1999/xlink" x="0px" y="0px" viewBox="0 0 125 40"
	 style="enable-background:new 0 0 125 40;" xml:space="preserve">
<style type="text/css">
	.st0{fill:#BBBABA;}
	.st1{fill:#201600;}
	.st2{fill:#969594;}
	.st3{fill:#EFBA44;}
	.st4{fill:#843347;}
</style>
<title>truste</title>
<desc>Created with Sketch.</desc>
<g>
	<path class="st0" d="M81.3,29.3H38.6c-6.1,0-11.1-5-11.1-11.1S32.5,7,38.6,7h42.7c6.1,0,11.1,5,11.1,11.1S87.5,29.3,81.3,29.3
		 M38.6,7.9c-5.7,0-10.2,4.6-10.2,10.3c0,5.7,4.6,10.3,10.2,10.3h42.7c5.7,0,10.2-4.6,10.2-10.3c0-5.7-4.6-10.3-10.2-10.3H38.6z"/>
	<path class="st1" d="M76.2,11.9c-1.7,0-3,1.3-3,3c0,1.7,1.3,3,3,3c1.7,0,3-1.3,3-3C79.2,13.3,77.9,11.9,76.2,11.9 M76.2,16.5
		c-0.9,0-1.5-0.7-1.5-1.5c0-0.9,0.7-1.5,1.5-1.5c0.9,0,1.5,0.7,1.5,1.5C77.7,15.8,77.1,16.5,76.2,16.5"/>
	<path class="st1" d="M62.4,11.9c-1.7,0-3,1.3-3,3c0,1.7,1.3,3,3,3c1.7,0,3-1.3,3-3C65.4,13.3,64.1,11.9,62.4,11.9 M62.4,16.5
		c-0.8,0-1.5-0.7-1.5-1.5c0-0.9,0.7-1.5,1.5-1.5c0.9,0,1.5,0.7,1.5,1.5C64,15.8,63.3,16.5,62.4,16.5"/>
	<path class="st1" d="M73,16.6c-0.2,0.1-0.5,0.1-0.6,0.1c-0.5,0-0.6-0.2-0.6-0.7v-2.8H73v-1.2h-1.2v-1.6h-1.4l-0.3,1.6h-1v0h-0.1
		c-0.8,0-1.4,0.5-1.8,1.2l-0.5-1.2h-1v5.8h1.7v-2.5c0-1.3,0.7-2.1,1.6-2.1h0.9v2.9c0,1.3,0.7,1.9,1.8,1.9c0.6,0,1-0.1,1.3-0.2
		L73,16.6z"/>
	<polyline class="st1" points="81.3,13.9 81.3,17.8 79.6,17.8 79.6,12.1 80.6,12.1 80.9,12.9 	"/>
	<path class="st1" d="M80.9,13c0.5-0.6,1.2-1,2-1c1.4,0,1.9,1.1,1.9,2.1v3.8h-1.7v-3.7c0-0.5-0.4-0.8-0.9-0.8c-0.5,0-0.8,0.3-1,0.6"
		/>
	<polygon class="st1" points="52.8,10 54.7,10 57.3,14.9 57.3,10 58.9,10 58.9,17.8 57.2,17.8 54.4,12.4 54.4,17.8 52.8,17.8 	"/>
	<polygon class="st2" points="89.9,7 89.9,7.3 89.5,7.3 89.5,8.7 89.1,8.7 89.1,7.3 88.7,7.3 88.7,7 	"/>
	<polygon class="st2" points="90.1,8.7 90.1,7 90.5,7 90.8,8.1 91.1,7 91.5,7 91.5,8.7 91.3,8.7 91.3,7.4 91.3,7.4 90.9,8.7 
		90.7,8.7 90.4,7.4 90.4,7.4 90.4,8.7 	"/>
	<path class="st2" d="M52.3,24.8l0.4-0.6c0.3,0.2,0.8,0.5,1.4,0.5c0.6,0,0.9-0.3,0.9-0.7c0-0.5-0.4-0.6-1.2-0.9
		c-0.7-0.2-1.3-0.6-1.3-1.5c0-0.9,0.7-1.3,1.6-1.3c0.6,0,1.1,0.1,1.4,0.3l-0.3,0.6c-0.3-0.2-0.7-0.3-1.1-0.3c-0.5,0-0.8,0.2-0.8,0.6
		c0,0.5,0.4,0.6,1,0.8c0.7,0.2,1.5,0.5,1.5,1.6c0,0.9-0.6,1.4-1.7,1.4C53.3,25.4,52.7,25.1,52.3,24.8"/>
	<polygon class="st2" points="57.3,20.3 60.3,20.3 60.3,21 58.2,21 58.2,22.4 59.9,22.4 59.9,23 58.2,23 58.2,24.6 60.4,24.6 
		60.4,25.3 57.3,25.3 	"/>
	<path class="st2" d="M61.6,22.8c0-1.5,0.7-2.6,2.1-2.6c0.6,0,1.1,0.2,1.5,0.6l-0.5,0.6c-0.3-0.3-0.6-0.4-1-0.4
		c-0.8,0-1.2,0.7-1.2,1.9c0,1.2,0.4,1.7,1.2,1.7c0.4,0,0.8-0.2,1-0.5l0.5,0.6c-0.4,0.4-0.8,0.7-1.5,0.7
		C62.3,25.4,61.6,24.3,61.6,22.8"/>
	<path class="st2" d="M66.7,23.4v-3.1h0.9v3.2c0,0.7,0.2,1.1,0.9,1.1c0.7,0,0.9-0.4,0.9-1.1v-3.2h0.9v3.1c0,1.2-0.5,2-1.8,2
		C67.1,25.4,66.7,24.6,66.7,23.4"/>
	<path class="st2" d="M75.4,25.3h-0.9l-1-2.1h-0.8v2.1h-0.8v-5h1.6c1,0,1.8,0.4,1.8,1.5c0,0.7-0.4,1.1-0.9,1.3L75.4,25.3z
		 M73.4,22.5c0.6,0,1-0.2,1-0.8c0-0.6-0.3-0.8-0.9-0.8h-0.8v1.5H73.4z"/>
	<polygon class="st2" points="76.8,20.3 79.8,20.3 79.8,21 77.7,21 77.7,22.4 79.3,22.4 79.3,23 77.7,23 77.7,24.6 79.9,24.6 
		79.9,25.3 76.8,25.3 	"/>
	<path class="st2" d="M81.3,20.3h1.2c1.6,0,2.4,0.9,2.4,2.5c0,1.6-0.8,2.5-2.4,2.5h-1.3V20.3z M82.5,24.6c1.2,0,1.6-0.5,1.6-1.8
		c0-1.1-0.3-1.8-1.5-1.8h-0.5v3.6H82.5z"/>
	<path class="st3" d="M38.6,30.2c-6.6,0-12-5.4-12-12c0-6.6,5.4-12,12-12c6.6,0,12,5.4,12,12C50.6,24.8,45.2,30.2,38.6,30.2
		 M38.6,10c-2.2,0-4.3,0.9-5.8,2.4c-1.5,1.6-2.4,3.6-2.4,5.8c0,2.2,0.9,4.3,2.4,5.8c1.6,1.5,3.6,2.4,5.8,2.4c2.2,0,4.3-0.9,5.8-2.4
		c1.5-1.6,2.4-3.6,2.4-5.8c0-2.2-0.9-4.3-2.4-5.8C42.8,10.8,40.7,10,38.6,10"/>
	<rect x="51.6" y="4.3" class="st3" width="0.9" height="0.9"/>
	<rect x="51.6" y="2.4" class="st3" width="0.9" height="0.9"/>
	<rect x="49" y="5.2" class="st3" width="0.9" height="0.9"/>
	<rect x="47.3" y="7" class="st1" width="0.9" height="0.9"/>
	<rect x="49.9" y="6.2" class="st1" width="1" height="0.9"/>
	<rect x="46.4" y="6.2" class="st1" width="0.9" height="0.8"/>
	<rect x="49" y="7" class="st1" width="0.9" height="0.9"/>
	<rect x="50.7" y="3.4" class="st1" width="0.9" height="0.9"/>
	<rect x="49" y="4.3" class="st1" width="1.7" height="0.9"/>
	<rect x="48.1" y="5.2" class="st1" width="0.9" height="1.8"/>
	<path class="st1" d="M48.1,7.9v0.9h-0.9V7.9h-1.5v0.6H45v0.8h0.9v0.9H45V9.3h-0.9v1.4h-0.9v0.9h-0.6v0.9H42
		c-0.7,1.1-2.5,4.4-3.1,5.8c-2-2.7-3.5-3.8-4.7-4.2c-0.6-0.2-1.4,0.5-0.4,1.6c2.5,2.7,3.3,5,4,6.8c0.4,0.9,2.2,1.1,2.5,0.1
		c0.8-2,1.9-4.3,3.2-6.2v-1h0.7v-0.9H45v-1h0.9v-1H45v-0.9h0.9v0.9h0.9l0-0.9h0.7v-1.1h0.8V9.8H49V7.9H48.1z"/>
	<path class="st2" d="M31.2,34.3h0.7v0.5c0.2-0.3,0.5-0.5,1-0.5c0.7,0,1.3,0.5,1.3,1.5v0c0,1-0.7,1.5-1.3,1.5c-0.5,0-0.8-0.2-1-0.5
		V38h-0.7V34.3z M33.5,35.7L33.5,35.7c0-0.6-0.4-0.9-0.8-0.9c-0.4,0-0.8,0.4-0.8,0.9v0c0,0.6,0.4,0.9,0.8,0.9
		C33.1,36.6,33.5,36.3,33.5,35.7"/>
	<path class="st2" d="M34.7,35.7L34.7,35.7c0-0.8,0.7-1.5,1.5-1.5c0.9,0,1.5,0.7,1.5,1.5v0c0,0.8-0.7,1.5-1.5,1.5
		C35.4,37.2,34.7,36.5,34.7,35.7 M37.1,35.7L37.1,35.7c0-0.5-0.4-0.9-0.9-0.9c-0.5,0-0.9,0.4-0.9,0.9v0c0,0.5,0.4,0.9,0.9,0.9
		C36.8,36.6,37.1,36.2,37.1,35.7"/>
	<polygon class="st2" points="38.1,34.3 38.8,34.3 39.3,36.2 40,34.3 40.5,34.3 41.2,36.2 41.8,34.3 42.4,34.3 41.5,37.2 40.9,37.2 
		40.2,35.2 39.6,37.2 39,37.2 	"/>
	<path class="st2" d="M42.8,35.7L42.8,35.7c0-0.8,0.6-1.5,1.4-1.5c0.9,0,1.4,0.7,1.4,1.5c0,0.1,0,0.1,0,0.2h-2.1
		c0.1,0.5,0.4,0.7,0.8,0.7c0.3,0,0.5-0.1,0.8-0.3l0.4,0.3c-0.3,0.3-0.6,0.5-1.2,0.5C43.4,37.2,42.8,36.6,42.8,35.7 M44.9,35.5
		c0-0.4-0.3-0.8-0.7-0.8c-0.4,0-0.7,0.3-0.7,0.8H44.9z"/>
	<path class="st2" d="M46.2,34.3h0.7v0.6c0.2-0.4,0.5-0.7,1-0.7v0.7h0c-0.6,0-1,0.4-1,1.1v1.1h-0.7V34.3z"/>
	<path class="st2" d="M48.3,35.7L48.3,35.7c0-0.8,0.6-1.5,1.4-1.5c0.9,0,1.4,0.7,1.4,1.5c0,0.1,0,0.1,0,0.2h-2.1
		c0.1,0.5,0.4,0.7,0.8,0.7c0.3,0,0.5-0.1,0.8-0.3l0.4,0.3c-0.3,0.3-0.6,0.5-1.2,0.5C48.9,37.2,48.3,36.6,48.3,35.7 M50.4,35.5
		c0-0.4-0.3-0.8-0.7-0.8c-0.4,0-0.7,0.3-0.7,0.8H50.4z"/>
	<path class="st2" d="M51.6,35.7L51.6,35.7c0-1,0.6-1.5,1.3-1.5c0.5,0,0.8,0.2,1,0.5v-1.5h0.7v4h-0.7v-0.5c-0.2,0.3-0.5,0.5-1,0.5
		C52.2,37.2,51.6,36.7,51.6,35.7 M53.9,35.7L53.9,35.7c0-0.6-0.4-0.9-0.8-0.9c-0.5,0-0.8,0.3-0.8,0.9v0c0,0.6,0.4,0.9,0.8,0.9
		C53.5,36.6,53.9,36.3,53.9,35.7"/>
	<path class="st2" d="M57.6,36.7v0.4H57v-4h0.7v1.6c0.2-0.3,0.5-0.5,1-0.5c0.7,0,1.3,0.5,1.3,1.5v0c0,1-0.7,1.5-1.3,1.5
		C58.1,37.2,57.8,37,57.6,36.7 M59.3,35.7L59.3,35.7c0-0.6-0.4-0.9-0.8-0.9c-0.4,0-0.8,0.4-0.8,0.9v0c0,0.6,0.4,0.9,0.8,0.9
		C58.9,36.6,59.3,36.3,59.3,35.7"/>
	<path class="st2" d="M60.4,37.9l0.2-0.5c0.1,0.1,0.2,0.1,0.4,0.1c0.2,0,0.3-0.1,0.4-0.3l-1.2-2.9h0.7l0.8,2.1l0.7-2.1h0.7L62,37.2
		c-0.2,0.6-0.5,0.8-0.9,0.8C60.8,38,60.6,38,60.4,37.9"/>
	<polygon class="st4" points="65.1,33.3 65.8,33.3 67,36.3 68.1,33.3 68.9,33.3 67.3,37.2 66.7,37.2 	"/>
	<path class="st4" d="M69,35.7L69,35.7c0-0.8,0.6-1.5,1.4-1.5c0.9,0,1.4,0.7,1.4,1.5c0,0.1,0,0.1,0,0.2h-2.1
		c0.1,0.5,0.4,0.7,0.8,0.7c0.3,0,0.5-0.1,0.8-0.3l0.4,0.3c-0.3,0.3-0.6,0.5-1.2,0.5C69.6,37.2,69,36.6,69,35.7 M71.1,35.5
		c0-0.4-0.3-0.8-0.7-0.8c-0.4,0-0.7,0.3-0.7,0.8H71.1z"/>
	<path class="st4" d="M72.4,34.3h0.7v0.6c0.2-0.4,0.5-0.7,1-0.7v0.7h0c-0.6,0-1,0.4-1,1.1v1.1h-0.7V34.3z"/>
	<path class="st4" d="M74.7,33.2h0.7v0.6h-0.7V33.2z M74.7,34.3h0.7v2.9h-0.7V34.3z"/>
	<path class="st4" d="M76,36.6l0.4-0.5c0.4,0.3,0.7,0.5,1.2,0.5c0.4,0,0.7-0.2,0.7-0.5v0c0-0.3-0.2-0.4-0.9-0.6
		c-0.8-0.2-1.3-0.4-1.3-1.1v0c0-0.7,0.5-1.1,1.3-1.1c0.6,0,1,0.2,1.4,0.5l-0.4,0.5c-0.3-0.3-0.7-0.4-1-0.4c-0.4,0-0.6,0.2-0.6,0.5v0
		c0,0.3,0.2,0.4,0.9,0.6c0.8,0.2,1.2,0.5,1.2,1.1v0c0,0.7-0.6,1.1-1.4,1.1C77,37.2,76.5,37,76,36.6"/>
	<path class="st4" d="M79.7,33.2h0.7v0.6h-0.7V33.2z M79.7,34.3h0.7v2.9h-0.7V34.3z"/>
	<path class="st4" d="M81.2,37.7l0.2-0.5c0.3,0.2,0.6,0.3,1,0.3c0.6,0,0.9-0.3,0.9-0.9v-0.2c-0.2,0.3-0.5,0.5-1,0.5
		c-0.7,0-1.3-0.5-1.3-1.3v0c0-0.8,0.6-1.3,1.3-1.3c0.5,0,0.8,0.2,1,0.5v-0.4H84v2.3c0,0.5-0.1,0.8-0.4,1.1C83.4,37.9,83,38,82.5,38
		C82,38,81.6,37.9,81.2,37.7 M83.4,35.6L83.4,35.6c0-0.5-0.4-0.8-0.8-0.8c-0.5,0-0.8,0.3-0.8,0.8v0c0,0.5,0.4,0.8,0.8,0.8
		C83,36.4,83.4,36,83.4,35.6"/>
	<path class="st4" d="M84.9,34.3h0.7v0.4c0.2-0.3,0.5-0.5,0.9-0.5c0.6,0,1,0.4,1,1.1v1.8h-0.7v-1.6c0-0.4-0.2-0.7-0.6-0.7
		c-0.4,0-0.6,0.3-0.6,0.7v1.6h-0.7V34.3z"/>
</g>
</svg>
