<?xml version="1.0" encoding="utf-8"?>
<!-- Generator: Adobe Illustrator 19.2.0, SVG Export Plug-In . SVG Version: 6.00 Build 0)  -->
<svg version="1.1" id="Layer_1" xmlns:sketch="http://www.bohemiancoding.com/sketch/ns"
	 xmlns="http://www.w3.org/2000/svg" xmlns:xlink="http://www.w3.org/1999/xlink" x="0px" y="0px" viewBox="0 0 125 40"
	 style="enable-background:new 0 0 125 40;" xml:space="preserve">
<style type="text/css">
	.st0{fill:#74CD3C;}
	.st1{font-family:'HelveticaNeueCyr-Roman';}
	.st2{font-size:7.943px;}
	.st3{fill:#FEFEFE;}
	.st4{fill:#333333;}
</style>
<title>truste</title>
<desc>Created with Sketch.</desc>
<g>
	<path d="M30.8,16.2c-0.9-1.7-2.3-2.9-4.1-3.7c-1.3-0.5-2.6-0.7-4-0.6c-2.6,0.3-4.6,1.6-6,3.8c-1.1,1.7-1.5,3.6-1.2,5.5
		c0.5,3.1,2.2,5.3,5.2,6.4c3.1,1.2,5.9,0.5,8.4-1.6c0.2-0.2,0.2-0.4,0-0.5c-0.4-0.4-0.8-0.7-1.2-1.1c-0.2-0.2-0.3-0.2-0.5,0
		c-0.5,0.4-1,0.8-1.6,1c-2.1,0.9-4.7,0.4-6.3-1.2c-1.3-1.3-1.9-2.9-1.8-4.7c0.1-1.7,0.9-3,2.2-4.1c0.7-0.6,1.6-1,2.6-1.2
		c2.3-0.4,4.7,0.6,5.9,2.6c0.5,0.8,0.8,1.7,0.9,2.6h2.3c0-0.1,0-0.1,0-0.2C31.6,18.1,31.3,17.1,30.8,16.2z"/>
	<path d="M20.2,19.5H27c-0.2-1.7-1.9-3-3.6-2.9C21.7,16.6,20.4,17.8,20.2,19.5z"/>
	<path d="M13,19.1c0.6-3.6,2.5-6.3,5.6-8c1.5-0.8,3.2-1.3,4.9-1.3c0.8,0,1.7,0.1,2.5,0.3c2,0.4,3.7,1.4,5.1,2.8
		c1.3,1.3,2.2,2.8,2.7,4.5c0.2,0.9,0.4,1.7,0.4,2.6l0,0h2c0-0.1,0-0.2,0-0.3c0-0.4,0-0.8-0.1-1.2c-0.5-2.9-1.8-5.3-3.9-7.3
		c-2.2-2-4.9-3.2-8-3.4c-1.3-0.1-2.7,0.1-4,0.5c-3.6,1-6.2,3.3-7.9,6.6c-0.8,1.6-1.2,3.3-1.3,5.1h2C12.9,19.7,12.9,19.4,13,19.1z"/>
	<path class="st0" d="M9.6,36.1h27.7c1.2,0,2.2-1,2.2-2.2V6.1c0-1.2-1-2.2-2.2-2.2H9.6c-1.2,0-2.2,1-2.2,2.2v27.7
		C7.4,35.1,8.4,36.1,9.6,36.1z"/>
</g>
<text transform="matrix(1 0 0 1 42.8398 29.8819)" class="st0 st1 st2">CERTIFIED PRIVACY</text>
<path class="st3" d="M29.3,19.5c-0.1-1-0.4-1.8-0.9-2.6c-1.3-2-3.6-3-5.9-2.6c-1,0.2-1.9,0.5-2.6,1.2c-1.3,1-2,2.4-2.2,4.1
	c-0.1,1.9,0.5,3.4,1.8,4.7c1.6,1.6,4.2,2.1,6.3,1.2c0.6-0.3,1.1-0.6,1.6-1c0.2-0.2,0.3-0.2,0.5,0c0.4,0.4,0.7,0.8,1.2,1.1
	c0.2,0.2,0.2,0.4,0,0.5c-2.5,2.1-5.3,2.7-8.4,1.6c-2.9-1.1-4.7-3.3-5.2-6.4c-0.3-2,0.1-3.8,1.2-5.5c1.4-2.2,3.4-3.5,6-3.8
	c1.4-0.2,2.7,0,4,0.6c1.8,0.8,3.2,2,4.1,3.7c0.5,1,0.8,2,0.9,3.1c0,0.1,0,0.2,0,0.2L29.3,19.5z"/>
<path class="st3" d="M27,19.5h-6.8c0.3-1.6,1.6-2.8,3.2-2.9C25.1,16.4,26.7,17.8,27,19.5z"/>
<path class="st4" d="M12.2,14.9c1.7-3.3,4.4-5.5,7.9-6.6c1.3-0.4,2.7-0.6,4-0.5c3.1,0.2,5.8,1.3,8,3.4c2.1,2,3.4,4.4,3.9,7.3
	c0.1,0.4,0.1,0.8,0.1,1.2c0,0.1,0,0.2,0,0.3h-2l0,0c0-0.9-0.2-1.7-0.4-2.5c-0.5-1.7-1.4-3.2-2.7-4.5c-1.4-1.4-3.2-2.4-5.1-2.8
	c-0.8-0.2-1.7-0.3-2.5-0.3c-1.7,0-3.3,0.4-4.9,1.3c-3.1,1.7-5,4.4-5.6,8c-0.1,0.3-0.1,0.6-0.1,0.9h-2C10.9,18.2,11.4,16.5,12.2,14.9
	z"/>
<g>
	<path class="st4" d="M60,16.5c-0.2-0.2-0.1-0.3,0.1-0.4c0.6-0.3,1.2-0.7,1.5-1.3c0.5-0.8,0.6-1.6,0.5-2.5c-0.1-1.2-0.6-2.1-1.6-2.8
		c-0.9-0.6-2-0.7-3-0.7c-1.5,0-3,0-4.6,0c-0.5,0-0.5,0-0.5,0.5c0,1.8,0,3.5,0,5.3s0,3.5,0,5.3c0,0.5,0,0.5,0.5,0.5
		c0.6,0,1.2,0,1.8,0c0.3,0,0.4-0.1,0.4-0.4c0-1,0-1.9,0-2.9c0-0.3,0.1-0.4,0.4-0.4c0.4,0,0.8,0,1.2,0c0.2,0,0.4,0.1,0.5,0.3
		c0.7,1,1.4,2.1,2.1,3.1c0.1,0.2,0.3,0.3,0.5,0.3c0.8,0,1.5,0,2.3,0c0.1,0,0.3,0.1,0.3-0.1c0.1-0.1-0.1-0.2-0.1-0.3
		C61.6,18.8,60.8,17.6,60,16.5z M58.1,14.3c-0.9,0.1-1.8,0-2.6,0.1c-0.2,0-0.3-0.1-0.3-0.3c0-0.5,0-0.9,0-1.4c0-0.4,0-0.9,0-1.3
		c0-0.1,0-0.3,0.2-0.3c0.9,0,1.9-0.1,2.8,0.1c0.9,0.1,1.4,0.7,1.4,1.6C59.6,13.6,59,14.2,58.1,14.3z"/>
	<path class="st4" d="M50.9,8.7c-1.4,0-2.9,0-4.3,0c-1.5,0-2.9,0-4.4,0c-0.3,0-0.4,0.1-0.4,0.4c0,0.6,0,1.1,0,1.7
		c0,0.3,0.1,0.4,0.4,0.4c0.9,0,1.8,0,2.6,0c0.5,0,0.5,0,0.5,0.5c0,2.7,0,5.5,0,8.2c0,0.3,0.1,0.5,0.4,0.5c0.6,0,1.2,0,1.7,0
		s0.5,0,0.5-0.5c0-2.7,0-5.5,0-8.2c0-0.3,0.1-0.5,0.4-0.4c0.9,0,1.8,0,2.7,0c0.3,0,0.3-0.1,0.3-0.3c0-0.6,0-1.1,0-1.7
		C51.4,8.8,51.3,8.7,50.9,8.7z"/>
	<path class="st4" d="M74,9.1c0-0.3-0.1-0.4-0.4-0.4c-0.6,0-1.2,0-1.8,0c-0.5,0-0.5,0-0.5,0.5c0,2,0,3.9,0,5.9c0,0.3,0,0.7-0.1,1
		c-0.1,0.9-0.5,1.6-1.4,1.8c-1,0.3-1.9,0.2-2.7-0.5c-0.5-0.6-0.7-1.3-0.7-2c0-2.1,0-4.2,0-6.2c0-0.3-0.1-0.4-0.4-0.4
		c-0.6,0-1.2,0-1.8,0c-0.3,0-0.4,0.1-0.4,0.4c0,1.1,0,2.3,0,3.5c0,1,0,2,0,3c0,0.4,0,0.7,0.1,1.1c0.3,1.6,1.1,2.8,2.6,3.5
		c1,0.4,2.1,0.4,3.2,0.3c0.9-0.1,1.7-0.4,2.4-0.9c1.2-0.9,1.7-2.2,1.7-3.7C74,13.6,74,11.3,74,9.1z"/>
	<path class="st4" d="M102,14.3c-0.5-1.7-1.6-2.7-3.3-3c-1.7-0.2-3.2,0.3-4.3,1.8c-0.7,1-0.9,2.2-0.8,3.4c0.2,1.5,0.9,2.6,2.1,3.4
		c1,0.6,2.1,0.7,3.3,0.6c1-0.2,1.9-0.6,2.6-1.3c0.2-0.2,0.2-0.4,0-0.6c-0.4-0.3-0.7-0.6-1-0.9c-0.2-0.2-0.3-0.2-0.4,0
		c-0.4,0.4-0.9,0.6-1.4,0.7c-1.1,0.2-2.1-0.3-2.4-1.2c-0.1-0.3,0-0.4,0.2-0.4c0.9,0,1.8,0,2.7,0s1.8,0,2.6,0c0.3,0,0.4-0.1,0.4-0.4
		C102.3,15.7,102.2,14.9,102,14.3z M99.5,15.1c-0.5,0-1.1,0-1.6,0s-1,0-1.5,0c-0.1,0-0.3,0-0.2-0.2c0.3-1.2,1.3-1.8,2.2-1.5
		c0.8,0.2,1.2,0.9,1.3,1.5C99.7,15.1,99.6,15.1,99.5,15.1z"/>
	<path class="st4" d="M82.8,14.1c-0.7-0.4-1.4-0.6-2.1-0.8c-0.6-0.2-1.2-0.3-1.8-0.6c-0.3-0.2-0.6-0.4-0.6-0.8
		c0-0.4,0.3-0.7,0.7-0.8c0.4-0.2,0.8-0.2,1.3-0.1c0.8,0.1,1.5,0.5,2.2,0.9c0.2,0.1,0.3,0.1,0.4-0.1c0.3-0.5,0.6-1,1-1.4
		c0.2-0.3,0.1-0.4-0.1-0.6c-1.4-1-3-1.4-4.8-1.2c-1.5,0.2-3.1,1.2-3.3,3.1c-0.1,1.1,0.1,2.2,1.1,2.9c0.6,0.4,1.4,0.7,2.1,0.9
		c0.8,0.2,1.5,0.4,2.3,0.7c0.5,0.2,0.6,0.5,0.6,1c0,0.4-0.3,0.7-0.7,0.8c-0.5,0.2-1,0.2-1.5,0.1c-0.9-0.1-1.8-0.6-2.5-1.2
		c-0.2-0.2-0.3-0.1-0.5,0.1c-0.4,0.4-0.7,0.9-1.1,1.3c-0.2,0.2-0.2,0.4,0.1,0.5c1.4,1.1,2.9,1.6,4.6,1.6c0.2,0,0.3,0,0.5,0
		c0.7-0.1,1.4-0.2,2-0.5c1.2-0.7,1.8-1.7,1.8-3.1C84.5,15.6,84,14.7,82.8,14.1z"/>
	<path class="st4" d="M94.4,10.8c0-0.6,0-1.1,0-1.7c0-0.3-0.1-0.4-0.4-0.4c-1.5,0-2.9,0-4.4,0s-2.9,0-4.4,0c-0.3,0-0.4,0.1-0.4,0.4
		c0,0.5,0,1.1,0,1.6c0,0.4,0,0.4,0.4,0.4c0.9,0,1.7,0,2.6,0c0.5,0,0.5,0,0.5,0.5c0,2.8,0,5.5,0,8.3c0,0.3,0.1,0.4,0.4,0.4
		c0.5,0,1.1,0,1.7,0c0.5,0,0.5,0,0.5-0.5c0-2.7,0-5.5,0-8.2c0-0.3,0.1-0.4,0.4-0.4c0.9,0,1.8,0,2.7,0C94.3,11.2,94.4,11.1,94.4,10.8
		z"/>
</g>
</svg>
