<?xml version="1.0" encoding="utf-8"?>
<!-- Generator: Adobe Illustrator 19.2.0, SVG Export Plug-In . SVG Version: 6.00 Build 0)  -->
<svg version="1.1" id="Shape_1_1_" xmlns="http://www.w3.org/2000/svg" xmlns:xlink="http://www.w3.org/1999/xlink" x="0px" y="0px"
	 viewBox="0 0 24 18" style="enable-background:new 0 0 24 18;" xml:space="preserve">
<style type="text/css">
	.st0{fill-rule:evenodd;clip-rule:evenodd;fill:#AFAFAF;}
</style>
<g id="Shape_1">
	<g>
		<path class="st0" d="M2.5,6.9h3.8V5.5H2.5V6.9z M7.5,13.9h3.8v-1.4H7.5V13.9z M9.7,2.7H2.5v1.4h7.2V2.7z M2.5,13.9h3.8v-1.4H2.5
			V13.9z M19.5,2.7c-0.6,0-1.1,0.2-1.4,0.6c-0.4-0.4-0.9-0.6-1.4-0.6c-1.1,0-2.1,0.9-2.1,2.1S15.4,7,16.6,7c0.6,0,1.1-0.2,1.4-0.6
			C18.4,6.7,18.9,7,19.5,7c1.1,0,2.1-0.9,2.1-2.1C21.5,3.7,20.6,2.7,19.5,2.7z M20.8,0H3.2C1.4,0,0,1.5,0,3.3v11.5
			C0,16.5,1.4,18,3.2,18h17.6c1.8,0,3.2-1.5,3.2-3.3V3.3C24,1.5,22.6,0,20.8,0z M23.1,14.7c0,1.3-1,2.3-2.3,2.3H3.2
			c-1.3,0-2.3-1-2.3-2.3V3.3c0-1.3,1-2.3,2.3-2.3h17.6c1.3,0,2.3,1,2.3,2.3V14.7z M12.6,13.9h3.8v-1.4h-3.8V13.9z M17.7,13.9h3.8
			v-1.4h-3.8V13.9z"/>
	</g>
</g>
</svg>
