<?xml version="1.0" encoding="utf-8"?>
<!-- Generator: Adobe Illustrator 19.2.0, SVG Export Plug-In . SVG Version: 6.00 Build 0)  -->
<svg version="1.1" id="Forma_1_копия_1_" xmlns="http://www.w3.org/2000/svg" xmlns:xlink="http://www.w3.org/1999/xlink"
	 x="0px" y="0px" viewBox="0 0 18 23" style="enable-background:new 0 0 18 23;" xml:space="preserve">
<style type="text/css">
	.st0{fill:#A2A2A2;}
</style>
<g id="Forma_1_копия">
	<g>
		<path class="st0" d="M15.1,8.2V5.5C15.1,1.6,13.2,0,9,0S2.9,1.6,2.9,5.5v2.7C1.2,8.5,0,9.9,0,11.6v7.9C0,21.4,1.5,23,3.5,23h11.1
			c1.9,0,3.5-1.6,3.5-3.5v-7.9C18,9.9,16.8,8.5,15.1,8.2z M3.8,5.5C3.8,2.1,5.3,1,9,1c3.7,0,5.2,1.2,5.2,4.5v2.7H3.8V5.5z M17,19.5
			c0,1.4-1.1,2.5-2.5,2.5H3.5C2.1,22,1,20.9,1,19.5v-7.9c0-1.4,1.1-2.5,2.5-2.5h11.1c1.4,0,2.5,1.1,2.5,2.5V19.5z M9,12
			c-1.1,0-1.9,0.9-1.9,1.9v2.9c0,1.1,0.9,1.9,1.9,1.9s1.9-0.9,1.9-1.9v-2.9C10.9,12.8,10.1,12,9,12z M10,16.8c0,0.5-0.4,1-1,1
			c-0.5,0-1-0.4-1-1v-2.9c0-0.5,0.4-1,1-1c0.5,0,1,0.4,1,1V16.8z"/>
	</g>
</g>
</svg>
