<?xml version="1.0" encoding="utf-8"?>
<!-- Generator: Adobe Illustrator 19.2.0, SVG Export Plug-In . SVG Version: 6.00 Build 0)  -->
<svg version="1.1" xmlns="http://www.w3.org/2000/svg" xmlns:xlink="http://www.w3.org/1999/xlink" x="0px" y="0px"
	 viewBox="0 0 22 21" style="enable-background:new 0 0 22 21;" xml:space="preserve">
<style type="text/css">
	.st0{enable-background:new    ;}
	.st1{fill:#AFAFAF;}
</style>
<g id="Прямоугольник_x2C__скругл._углы_3_1_" class="st0">
	<g id="Прямоугольник_x2C__скругл._углы_3">
		<g>
			<path class="st1" d="M19,2h-3l0.3-1.3C16.3,0.3,16,0,15.5,0c-0.5,0-0.8,0.3-0.8,0.7L15,2H7l0.3-1.3C7.3,0.3,7,0,6.5,0
				C6,0,5.8,0.3,5.8,0.7L6,2H3C0.9,2,0,2.9,0,5v13c0,2.1,0.9,3,3,3h16c2.1,0,3-0.9,3-3V5C22,2.9,21.1,2,19,2z M21,18
				c0,1.2-0.8,2-2,2H3c-1.2,0-2-0.8-2-2V7h20V18z M21,6H1V5c0-1.2,0.8-2,2-2h3L5.8,3.7c0,0.4,0.3,0.7,0.8,0.7c0.4,0,0.8-0.3,0.8-0.7
				L7,3h8l-0.3,0.7c0,0.4,0.3,0.7,0.8,0.7c0.5,0,0.8-0.3,0.8-0.7L16,3h3c1.2,0,2,0.8,2,2V6z M4.3,17.3c0.4,0,0.8-0.1,1-0.4
				c0.3-0.3,0.5-0.7,0.5-1c0-0.3-0.1-0.7-0.5-1c-0.6-0.6-1.5-0.6-2.1,0c-0.3,0.3-0.4,0.6-0.4,1c0,0.3,0.1,0.7,0.4,1
				C3.5,17.1,3.8,17.3,4.3,17.3z M4.3,12.8c0.4,0,0.8-0.1,1-0.4c0.3-0.3,0.5-0.7,0.5-1c0-0.3-0.1-0.7-0.5-1c-0.6-0.6-1.5-0.6-2.1,0
				c-0.3,0.3-0.4,0.6-0.4,1c0,0.4,0.1,0.7,0.4,1C3.5,12.6,3.8,12.8,4.3,12.8z M8.8,17.3c0.4,0,0.8-0.1,1-0.4c0.3-0.3,0.5-0.7,0.5-1
				c0-0.3-0.2-0.7-0.5-1c-0.6-0.6-1.5-0.6-2.1,0c-0.3,0.3-0.4,0.7-0.4,1c0,0.3,0.1,0.7,0.4,1C8,17.1,8.3,17.3,8.8,17.3z M8.8,12.8
				c0.4,0,0.8-0.1,1-0.4c0.3-0.3,0.5-0.7,0.5-1c0-0.3-0.2-0.7-0.5-1c-0.6-0.6-1.5-0.6-2.1,0c-0.3,0.3-0.4,0.7-0.4,1
				c0,0.3,0.1,0.7,0.4,1C8,12.6,8.3,12.8,8.8,12.8z M13.2,17.3c0.5,0,0.8-0.1,1.1-0.4c0.3-0.3,0.4-0.6,0.4-1c0-0.4-0.1-0.7-0.4-1
				c-0.6-0.6-1.5-0.6-2.1,0c-0.3,0.3-0.4,0.7-0.4,1c0,0.3,0.2,0.7,0.4,1C12.5,17.1,12.8,17.3,13.2,17.3z M13.2,12.8
				c0.5,0,0.8-0.1,1.1-0.4c0.3-0.3,0.4-0.6,0.4-1c0-0.3-0.1-0.7-0.4-1c-0.6-0.6-1.5-0.6-2.1,0c-0.3,0.3-0.4,0.7-0.4,1
				c0,0.3,0.2,0.7,0.4,1C12.5,12.6,12.8,12.8,13.2,12.8z M17.8,17.3c0.5,0,0.8-0.1,1.1-0.4c0.3-0.3,0.4-0.7,0.4-1
				c0-0.3-0.1-0.7-0.4-1c-0.6-0.6-1.5-0.6-2.1,0c-0.3,0.3-0.4,0.6-0.4,1c0,0.3,0.1,0.7,0.4,1C17,17.1,17.3,17.3,17.8,17.3z
				 M17.8,12.8c0.5,0,0.8-0.1,1.1-0.4c0.3-0.3,0.4-0.6,0.4-1c0-0.3-0.1-0.7-0.4-1c-0.6-0.6-1.5-0.6-2.1,0c-0.3,0.3-0.4,0.7-0.4,1
				c0,0.3,0.1,0.7,0.4,1C17,12.6,17.3,12.8,17.8,12.8z"/>
		</g>
	</g>
</g>
<g id="Forma_1_1_" class="st0">
	<g id="Forma_1">
	</g>
</g>
</svg>
