<?xml version="1.0" encoding="utf-8"?>
<!-- Generator: Adobe Illustrator 19.2.0, SVG Export Plug-In . SVG Version: 6.00 Build 0)  -->
<svg version="1.1" id="Forma_1_1_" xmlns="http://www.w3.org/2000/svg" xmlns:xlink="http://www.w3.org/1999/xlink" x="0px" y="0px"
	 viewBox="0 0 20 23" style="enable-background:new 0 0 20 23;" xml:space="preserve">
<style type="text/css">
	.st0{fill:#AFAFAF;}
</style>
<g id="Forma_1">
	<g>
		<path class="st0" d="M9.3,1C9.4,1,9.4,1,9.3,1C9.4,1,9.4,1,9.3,1l0.2,0l0,0l0.3,0.1c0.9,0.2,3.2,1.1,3.5,1.9
			c0.2,0.4,0,1.6-0.1,2.3c-0.1,0.4,0.1,0.8,0.3,1c0,0.1,0,0.3-0.1,0.4c-0.1,0.2-0.1,0.3-0.2,0.4c-0.1,0.1-0.1,0.2-0.2,0.4l0,0.1
			l0,0.1c-0.4,1.8-1.8,3.3-3,3.3c-1.3,0-2.7-1.5-3.1-3.3l0-0.1l0-0.1C6.8,7.3,6.7,7.2,6.7,7.1C6.6,7,6.6,6.9,6.5,6.7
			C6.4,6.5,6.4,6.3,6.4,6.3c0.2-0.2,0.4-0.6,0.3-1C6.6,4.5,6.4,3.4,6.6,3C7,2,8.4,1.3,8.9,1.1C9.1,1,9.2,1,9.3,1 M7.2,12.6
			c0.9,0.7,1.9,1,2.8,1H10c0.9,0,1.9-0.4,2.8-1c0.7,0.4,1.9,1.1,3.7,1.6c3.1,1.1,2.5,5.4,2.3,6.3l0,0c0,0.1,0,0.2-0.1,0.3
			C16.8,21.6,13.5,22,10,22c-3.5,0-6.8-0.4-8.8-1.1c0-0.1,0-0.2-0.1-0.3l0,0c-0.2-0.9-0.8-5.2,2.3-6.3C5.3,13.7,6.5,13.1,7.2,12.6
			 M9.3,0C9.1,0,8.8,0,8.5,0.2C8.2,0.3,6.2,1.1,5.7,2.6C5.3,3.6,5.7,5.5,5.7,5.5s0,0,0,0c0,0,0,0-0.2,0.2l0,0C5.3,5.9,5.4,6.4,5.5,7
			C5.7,7.5,5.9,7.7,6,7.8c0.5,2.2,2.3,4.1,4.1,4.1s3.5-1.9,4-4.1c0-0.1,0.3-0.3,0.4-0.8c0.2-0.6,0.2-1.1,0.1-1.2l0,0
			c-0.2-0.2-0.2-0.2-0.2-0.2c0,0,0,0,0,0s0.4-1.9,0.1-2.9c-0.5-1.5-3.7-2.4-4.3-2.6C10,0.1,9.6,0,9.6,0C9.6,0,9.5,0,9.3,0L9.3,0z
			 M12.8,11.4L12.8,11.4c-0.9,0.8-1.9,1.3-2.7,1.3H10c-0.9,0-1.8-0.4-2.7-1.2l-0.1-0.1c0,0-1.2,1.1-4.1,1.9c-4.2,1.5-3,7.4-3,7.5
			c0.1,0.7,0.2,0.9,0.3,0.9C2.6,22.6,6.3,23,10,23c3.7,0,7.4-0.4,9.5-1.3c0.1,0,0.1-0.3,0.3-0.9c0,0,1.3-6-3-7.5
			C14,12.5,12.8,11.4,12.8,11.4L12.8,11.4z"/>
	</g>
</g>
</svg>
